<svg width="423" height="155" viewBox="0 0 423 155" fill="none" xmlns="http://www.w3.org/2000/svg">
<mask id="path-1-inside-1_111_24" fill="white">
<path d="M155 77.5C155 92.8281 150.455 107.812 141.939 120.557C133.423 133.302 121.319 143.235 107.158 149.101C92.9967 154.966 77.414 156.501 62.3805 153.511C47.347 150.521 33.5378 143.139 22.6992 132.301C11.8607 121.462 4.4795 107.653 1.48914 92.6195C-1.50121 77.586 0.0335448 62.0033 5.89934 47.842C11.7651 33.6808 21.6985 21.5769 34.4433 13.0611C47.1881 4.5453 62.1719 -1.82785e-07 77.5 0L77.5 22.2445C66.5715 22.2445 55.8884 25.4851 46.8017 31.5567C37.7149 37.6282 30.6327 46.258 26.4505 56.3546C22.2684 66.4512 21.1741 77.5613 23.3062 88.2798C25.4382 98.9983 30.7008 108.844 38.4284 116.572C46.1561 124.299 56.0017 129.562 66.7202 131.694C77.4387 133.826 88.5488 132.732 98.6454 128.549C108.742 124.367 117.372 117.285 123.443 108.198C129.515 99.1116 132.756 88.4285 132.756 77.5H155Z"/>
</mask>
<path d="M155 77.5C155 92.8281 150.455 107.812 141.939 120.557C133.423 133.302 121.319 143.235 107.158 149.101C92.9967 154.966 77.414 156.501 62.3805 153.511C47.347 150.521 33.5378 143.139 22.6992 132.301C11.8607 121.462 4.4795 107.653 1.48914 92.6195C-1.50121 77.586 0.0335448 62.0033 5.89934 47.842C11.7651 33.6808 21.6985 21.5769 34.4433 13.0611C47.1881 4.5453 62.1719 -1.82785e-07 77.5 0L77.5 22.2445C66.5715 22.2445 55.8884 25.4851 46.8017 31.5567C37.7149 37.6282 30.6327 46.258 26.4505 56.3546C22.2684 66.4512 21.1741 77.5613 23.3062 88.2798C25.4382 98.9983 30.7008 108.844 38.4284 116.572C46.1561 124.299 56.0017 129.562 66.7202 131.694C77.4387 133.826 88.5488 132.732 98.6454 128.549C108.742 124.367 117.372 117.285 123.443 108.198C129.515 99.1116 132.756 88.4285 132.756 77.5H155Z" fill="#1C4E80" stroke="#141364" stroke-width="10" mask="url(#path-1-inside-1_111_24)"/>
<mask id="path-2-inside-2_111_24" fill="white">
<path d="M155 77.5C155 92.8281 150.455 107.812 141.939 120.557C133.423 133.302 121.319 143.235 107.158 149.101C92.9967 154.966 77.414 156.501 62.3805 153.511C47.347 150.521 33.5378 143.139 22.6992 132.301C11.8607 121.462 4.4795 107.653 1.48914 92.6195C-1.50121 77.586 0.0335448 62.0033 5.89934 47.842C11.7651 33.6808 21.6985 21.5769 34.4433 13.0611C47.1881 4.5453 62.1719 -1.82785e-07 77.5 0L77.5 22.2445C66.5715 22.2445 55.8884 25.4851 46.8017 31.5567C37.7149 37.6282 30.6327 46.258 26.4505 56.3546C22.2684 66.4512 21.1741 77.5613 23.3062 88.2798C25.4382 98.9983 30.7008 108.844 38.4284 116.572C46.1561 124.299 56.0017 129.562 66.7202 131.694C77.4387 133.826 88.5488 132.732 98.6454 128.549C108.742 124.367 117.372 117.285 123.443 108.198C129.515 99.1116 132.756 88.4285 132.756 77.5H155Z"/>
</mask>
<path d="M155 77.5C155 92.8281 150.455 107.812 141.939 120.557C133.423 133.302 121.319 143.235 107.158 149.101C92.9967 154.966 77.414 156.501 62.3805 153.511C47.347 150.521 33.5378 143.139 22.6992 132.301C11.8607 121.462 4.4795 107.653 1.48914 92.6195C-1.50121 77.586 0.0335448 62.0033 5.89934 47.842C11.7651 33.6808 21.6985 21.5769 34.4433 13.0611C47.1881 4.5453 62.1719 -1.82785e-07 77.5 0L77.5 22.2445C66.5715 22.2445 55.8884 25.4851 46.8017 31.5567C37.7149 37.6282 30.6327 46.258 26.4505 56.3546C22.2684 66.4512 21.1741 77.5613 23.3062 88.2798C25.4382 98.9983 30.7008 108.844 38.4284 116.572C46.1561 124.299 56.0017 129.562 66.7202 131.694C77.4387 133.826 88.5488 132.732 98.6454 128.549C108.742 124.367 117.372 117.285 123.443 108.198C129.515 99.1116 132.756 88.4285 132.756 77.5H155Z" fill="#1C4E80" stroke="white" stroke-width="10" mask="url(#path-2-inside-2_111_24)"/>
<path d="M78.75 77V71.5312L83.5938 70.5938V37.9375L78.75 37V31.5H83.5938H97.0938L109.5 63.2188H109.688L121.688 31.5H140.062V37L135.188 37.9375V70.5938L140.062 71.5312V77H121.219V71.5312L126.312 70.5938V61.875L126.469 41.3438L126.281 41.3125L112.688 76.375H105.781L91.875 41.5938L91.6875 41.625L92.2188 60.9375V70.5938L97.5938 71.5312V77H78.75ZM159.719 77.6562C156.49 77.6562 153.667 76.9479 151.25 75.5312C148.833 74.0938 146.958 72.125 145.625 69.625C144.312 67.125 143.656 64.2708 143.656 61.0625V59.8125C143.656 56.4583 144.281 53.4896 145.531 50.9062C146.781 48.3021 148.542 46.2604 150.812 44.7812C153.104 43.2812 155.802 42.5417 158.906 42.5625C161.969 42.5625 164.542 43.1667 166.625 44.375C168.708 45.5833 170.292 47.3229 171.375 49.5938C172.458 51.8646 173 54.6146 173 57.8438V62.8125H153.125L153.062 63C153.188 64.4792 153.552 65.8021 154.156 66.9688C154.781 68.1146 155.656 69.0208 156.781 69.6875C157.906 70.3333 159.271 70.6562 160.875 70.6562C162.542 70.6562 164.094 70.4479 165.531 70.0312C166.99 69.5938 168.406 68.9583 169.781 68.125L172.25 73.75C170.854 74.875 169.094 75.8125 166.969 76.5625C164.865 77.2917 162.448 77.6562 159.719 77.6562ZM153.188 56.7812H164.469V55.9688C164.469 54.5938 164.281 53.4167 163.906 52.4375C163.552 51.4375 162.969 50.6667 162.156 50.125C161.365 49.5833 160.333 49.3125 159.062 49.3125C157.854 49.3125 156.833 49.6354 156 50.2812C155.167 50.9062 154.51 51.7708 154.031 52.875C153.573 53.9792 153.26 55.2292 153.094 56.625L153.188 56.7812ZM176.875 77V71.5312L181.25 70.5938V49.625L176.406 48.6875V43.1875H189.75L190.156 48.0312C191.281 46.3021 192.667 44.9583 194.312 44C195.979 43.0417 197.875 42.5625 200 42.5625C203.354 42.5625 205.979 43.6354 207.875 45.7812C209.771 47.9271 210.719 51.2917 210.719 55.875V70.5938L215.094 71.5312V77H197.656V71.5312L201.562 70.5938V55.9062C201.562 53.6354 201.115 52.0312 200.219 51.0938C199.323 50.1354 197.99 49.6562 196.219 49.6562C194.906 49.6562 193.76 49.9375 192.781 50.5C191.823 51.0417 191.021 51.8229 190.375 52.8438V70.5938L194.062 71.5312V77H176.875ZM231.062 77.6562C227.5 77.6562 224.698 76.5312 222.656 74.2812C220.635 72.0104 219.625 68.4896 219.625 63.7188V49.625L215.906 48.6875V43.1875H219.625H228.75V63.7812C228.75 66.1979 229.167 67.9375 230 69C230.854 70.0417 232.135 70.5625 233.844 70.5625C235.198 70.5625 236.396 70.3021 237.438 69.7812C238.479 69.2396 239.333 68.4792 240 67.5V49.625L235.969 48.6875V43.1875H240H249.125V70.5938L253.188 71.5312V77H241.125L240.5 72.7188C239.438 74.3021 238.104 75.5208 236.5 76.375C234.896 77.2292 233.083 77.6562 231.062 77.6562ZM278.031 77.6562C273.615 77.6562 269.771 76.7396 266.5 74.9062C263.229 73.0521 260.698 70.4375 258.906 67.0625C257.135 63.6667 256.25 59.6562 256.25 55.0312V53.5C256.25 49.0833 257.104 45.1771 258.812 41.7812C260.542 38.3646 263 35.6875 266.188 33.75C269.375 31.8125 273.167 30.8438 277.562 30.8438C280.646 30.8438 283.531 31.2812 286.219 32.1562C288.927 33.0312 291.344 34.3646 293.469 36.1562V47.1562H286.688L285.75 40.25C285.062 39.75 284.312 39.3229 283.5 38.9688C282.688 38.6146 281.802 38.3438 280.844 38.1562C279.906 37.9688 278.885 37.875 277.781 37.875C275.198 37.875 272.979 38.5104 271.125 39.7812C269.271 41.0521 267.844 42.8542 266.844 45.1875C265.865 47.5 265.375 50.25 265.375 53.4375V55.0312C265.375 58.2188 265.896 60.9792 266.938 63.3125C267.979 65.6458 269.458 67.4583 271.375 68.75C273.292 70.0208 275.562 70.6562 278.188 70.6562C279.5 70.6562 280.812 70.5104 282.125 70.2188C283.458 69.9062 284.667 69.5104 285.75 69.0312L286.688 62.625H293.469V73.5C291.698 74.6667 289.49 75.6562 286.844 76.4688C284.198 77.2604 281.26 77.6562 278.031 77.6562ZM298.594 77V71.5312L302.969 70.5938V49.625L298.125 48.6875V43.1875H311.469L311.812 47.375L311.875 48.125C312.708 46.2917 313.74 44.9062 314.969 43.9688C316.198 43.0312 317.667 42.5625 319.375 42.5625C319.917 42.5625 320.51 42.6146 321.156 42.7188C321.802 42.8021 322.375 42.9167 322.875 43.0625L321.906 51.4688L317.375 51.2188C316.083 51.1562 315.031 51.375 314.219 51.875C313.427 52.375 312.719 53.0938 312.094 54.0312V70.5938L316.469 71.5312V77H298.594ZM325.75 77V71.5312L330.156 70.5938V49.625L325.281 48.6875V43.1875H339.281V70.5938L343.656 71.5312V77H325.75ZM329.844 36.0312V28.25H339.281V36.0312H329.844ZM360 77.6562C356.854 77.6562 354.427 76.7917 352.719 75.0625C351.031 73.3333 350.188 70.5938 350.188 66.8438V49.5938H345.531V43.1875H350.188V34.9062H359.281V43.1875H365.5V49.5938H359.281V66.8125C359.281 68.125 359.552 69.0625 360.094 69.625C360.656 70.1875 361.417 70.4688 362.375 70.4688C362.896 70.4688 363.438 70.4375 364 70.375C364.583 70.2917 365.083 70.2083 365.5 70.125L366.281 76.7188C365.344 76.9896 364.323 77.2083 363.219 77.375C362.135 77.5625 361.062 77.6562 360 77.6562ZM370.188 77V71.5312L374.594 70.5938V49.625L369.719 48.6875V43.1875H383.719V70.5938L388.094 71.5312V77H370.188ZM374.281 36.0312V28.25H383.719V36.0312H374.281ZM407.062 77.6562C403.812 77.6562 401 76.9271 398.625 75.4688C396.271 74.0104 394.458 72 393.188 69.4375C391.917 66.8542 391.281 63.9062 391.281 60.5938V59.6562C391.281 56.3229 391.927 53.375 393.219 50.8125C394.51 48.25 396.333 46.2396 398.688 44.7812C401.042 43.3021 403.812 42.5625 407 42.5625C410.042 42.5625 412.656 43.0417 414.844 44C417.052 44.9375 418.844 46.0312 420.219 47.2812L420.156 56.9688H413.281L412.062 50.9375C411.562 50.4375 410.927 50.0312 410.156 49.7188C409.385 49.4062 408.604 49.25 407.812 49.25C406.146 49.25 404.76 49.6667 403.656 50.5C402.573 51.3333 401.76 52.5208 401.219 54.0625C400.677 55.6042 400.406 57.4688 400.406 59.6562V60.5938C400.406 62.9062 400.708 64.8125 401.312 66.3125C401.917 67.7917 402.719 68.8854 403.719 69.5938C404.74 70.3021 405.875 70.6562 407.125 70.6562C408.729 70.6562 410.01 70.2396 410.969 69.4062C411.948 68.5521 412.615 67.3542 412.969 65.8125H420.781L420.875 66C420.521 68.3958 419.812 70.4688 418.75 72.2188C417.708 73.9688 416.229 75.3125 414.312 76.25C412.417 77.1875 410 77.6562 407.062 77.6562Z" fill="white"/>
</svg>
