<svg width="422" height="155" viewBox="0 0 422 155" fill="none" xmlns="http://www.w3.org/2000/svg">
<mask id="path-1-inside-1_102_2" fill="white">
<path d="M155 77.5C155 92.828 150.455 107.812 141.939 120.557C133.423 133.301 121.319 143.235 107.158 149.101C92.9967 154.966 77.414 156.501 62.3805 153.511C47.347 150.521 33.5378 143.139 22.6992 132.301C11.8607 121.462 4.4795 107.653 1.48914 92.6195C-1.50121 77.586 0.0335448 62.0033 5.89934 47.842C11.7651 33.6808 21.6985 21.5769 34.4433 13.0611C47.1881 4.5453 62.1719 -1.82785e-07 77.5 0V22.2445C66.5715 22.2445 55.8884 25.4851 46.8017 31.5567C37.7149 37.6283 30.6327 46.258 26.4505 56.3546C22.2684 66.4512 21.1741 77.5613 23.3062 88.2798C25.4382 98.9984 30.7008 108.844 38.4284 116.572C46.1561 124.299 56.0017 129.562 66.7202 131.694C77.4387 133.826 88.5488 132.732 98.6454 128.549C108.742 124.367 117.372 117.285 123.443 108.198C129.515 99.1116 132.756 88.4285 132.756 77.5H155Z"/>
</mask>
<path d="M155 77.5C155 92.828 150.455 107.812 141.939 120.557C133.423 133.301 121.319 143.235 107.158 149.101C92.9967 154.966 77.414 156.501 62.3805 153.511C47.347 150.521 33.5378 143.139 22.6992 132.301C11.8607 121.462 4.4795 107.653 1.48914 92.6195C-1.50121 77.586 0.0335448 62.0033 5.89934 47.842C11.7651 33.6808 21.6985 21.5769 34.4433 13.0611C47.1881 4.5453 62.1719 -1.82785e-07 77.5 0V22.2445C66.5715 22.2445 55.8884 25.4851 46.8017 31.5567C37.7149 37.6283 30.6327 46.258 26.4505 56.3546C22.2684 66.4512 21.1741 77.5613 23.3062 88.2798C25.4382 98.9984 30.7008 108.844 38.4284 116.572C46.1561 124.299 56.0017 129.562 66.7202 131.694C77.4387 133.826 88.5488 132.732 98.6454 128.549C108.742 124.367 117.372 117.285 123.443 108.198C129.515 99.1116 132.756 88.4285 132.756 77.5H155Z" fill="#FFDA6A" stroke="#141364" stroke-width="10" mask="url(#path-1-inside-1_102_2)"/>
<mask id="path-2-inside-2_102_2" fill="white">
<path d="M155 77.5C155 92.828 150.455 107.812 141.939 120.557C133.423 133.301 121.319 143.235 107.158 149.101C92.9967 154.966 77.414 156.501 62.3805 153.511C47.347 150.521 33.5378 143.139 22.6992 132.301C11.8607 121.462 4.4795 107.653 1.48914 92.6195C-1.50121 77.586 0.0335448 62.0033 5.89934 47.842C11.7651 33.6808 21.6985 21.5769 34.4433 13.0611C47.1881 4.5453 62.1719 -1.82785e-07 77.5 0V22.2445C66.5715 22.2445 55.8884 25.4851 46.8017 31.5567C37.7149 37.6283 30.6327 46.258 26.4505 56.3546C22.2684 66.4512 21.1741 77.5613 23.3062 88.2798C25.4382 98.9984 30.7008 108.844 38.4284 116.572C46.1561 124.299 56.0017 129.562 66.7202 131.694C77.4387 133.826 88.5488 132.732 98.6454 128.549C108.742 124.367 117.372 117.285 123.443 108.198C129.515 99.1116 132.756 88.4285 132.756 77.5H155Z"/>
</mask>
<path d="M155 77.5C155 92.828 150.455 107.812 141.939 120.557C133.423 133.301 121.319 143.235 107.158 149.101C92.9967 154.966 77.414 156.501 62.3805 153.511C47.347 150.521 33.5378 143.139 22.6992 132.301C11.8607 121.462 4.4795 107.653 1.48914 92.6195C-1.50121 77.586 0.0335448 62.0033 5.89934 47.842C11.7651 33.6808 21.6985 21.5769 34.4433 13.0611C47.1881 4.5453 62.1719 -1.82785e-07 77.5 0V22.2445C66.5715 22.2445 55.8884 25.4851 46.8017 31.5567C37.7149 37.6283 30.6327 46.258 26.4505 56.3546C22.2684 66.4512 21.1741 77.5613 23.3062 88.2798C25.4382 98.9984 30.7008 108.844 38.4284 116.572C46.1561 124.299 56.0017 129.562 66.7202 131.694C77.4387 133.826 88.5488 132.732 98.6454 128.549C108.742 124.367 117.372 117.285 123.443 108.198C129.515 99.1116 132.756 88.4285 132.756 77.5H155Z" fill="#FFDA6A" stroke="#1C4E80" stroke-width="10" mask="url(#path-2-inside-2_102_2)"/>
<path d="M77.75 75V69.5312L82.5938 68.5938V35.9375L77.75 35V29.5H82.5938H96.0938L108.5 61.2188H108.688L120.688 29.5H139.062V35L134.188 35.9375V68.5938L139.062 69.5312V75H120.219V69.5312L125.312 68.5938V59.875L125.469 39.3438L125.281 39.3125L111.688 74.375H104.781L90.875 39.5938L90.6875 39.625L91.2188 58.9375V68.5938L96.5938 69.5312V75H77.75ZM158.719 75.6562C155.49 75.6562 152.667 74.9479 150.25 73.5312C147.833 72.0938 145.958 70.125 144.625 67.625C143.312 65.125 142.656 62.2708 142.656 59.0625V57.8125C142.656 54.4583 143.281 51.4896 144.531 48.9062C145.781 46.3021 147.542 44.2604 149.812 42.7812C152.104 41.2812 154.802 40.5417 157.906 40.5625C160.969 40.5625 163.542 41.1667 165.625 42.375C167.708 43.5833 169.292 45.3229 170.375 47.5938C171.458 49.8646 172 52.6146 172 55.8438V60.8125H152.125L152.062 61C152.188 62.4792 152.552 63.8021 153.156 64.9688C153.781 66.1146 154.656 67.0208 155.781 67.6875C156.906 68.3333 158.271 68.6562 159.875 68.6562C161.542 68.6562 163.094 68.4479 164.531 68.0312C165.99 67.5938 167.406 66.9583 168.781 66.125L171.25 71.75C169.854 72.875 168.094 73.8125 165.969 74.5625C163.865 75.2917 161.448 75.6562 158.719 75.6562ZM152.188 54.7812H163.469V53.9688C163.469 52.5938 163.281 51.4167 162.906 50.4375C162.552 49.4375 161.969 48.6667 161.156 48.125C160.365 47.5833 159.333 47.3125 158.062 47.3125C156.854 47.3125 155.833 47.6354 155 48.2812C154.167 48.9062 153.51 49.7708 153.031 50.875C152.573 51.9792 152.26 53.2292 152.094 54.625L152.188 54.7812ZM175.875 75V69.5312L180.25 68.5938V47.625L175.406 46.6875V41.1875H188.75L189.156 46.0312C190.281 44.3021 191.667 42.9583 193.312 42C194.979 41.0417 196.875 40.5625 199 40.5625C202.354 40.5625 204.979 41.6354 206.875 43.7812C208.771 45.9271 209.719 49.2917 209.719 53.875V68.5938L214.094 69.5312V75H196.656V69.5312L200.562 68.5938V53.9062C200.562 51.6354 200.115 50.0312 199.219 49.0938C198.323 48.1354 196.99 47.6562 195.219 47.6562C193.906 47.6562 192.76 47.9375 191.781 48.5C190.823 49.0417 190.021 49.8229 189.375 50.8438V68.5938L193.062 69.5312V75H175.875ZM230.062 75.6562C226.5 75.6562 223.698 74.5312 221.656 72.2812C219.635 70.0104 218.625 66.4896 218.625 61.7188V47.625L214.906 46.6875V41.1875H218.625H227.75V61.7812C227.75 64.1979 228.167 65.9375 229 67C229.854 68.0417 231.135 68.5625 232.844 68.5625C234.198 68.5625 235.396 68.3021 236.438 67.7812C237.479 67.2396 238.333 66.4792 239 65.5V47.625L234.969 46.6875V41.1875H239H248.125V68.5938L252.188 69.5312V75H240.125L239.5 70.7188C238.438 72.3021 237.104 73.5208 235.5 74.375C233.896 75.2292 232.083 75.6562 230.062 75.6562ZM277.031 75.6562C272.615 75.6562 268.771 74.7396 265.5 72.9062C262.229 71.0521 259.698 68.4375 257.906 65.0625C256.135 61.6667 255.25 57.6562 255.25 53.0312V51.5C255.25 47.0833 256.104 43.1771 257.812 39.7812C259.542 36.3646 262 33.6875 265.188 31.75C268.375 29.8125 272.167 28.8438 276.562 28.8438C279.646 28.8438 282.531 29.2812 285.219 30.1562C287.927 31.0312 290.344 32.3646 292.469 34.1562V45.1562H285.688L284.75 38.25C284.062 37.75 283.312 37.3229 282.5 36.9688C281.688 36.6146 280.802 36.3438 279.844 36.1562C278.906 35.9688 277.885 35.875 276.781 35.875C274.198 35.875 271.979 36.5104 270.125 37.7812C268.271 39.0521 266.844 40.8542 265.844 43.1875C264.865 45.5 264.375 48.25 264.375 51.4375V53.0312C264.375 56.2188 264.896 58.9792 265.938 61.3125C266.979 63.6458 268.458 65.4583 270.375 66.75C272.292 68.0208 274.562 68.6562 277.188 68.6562C278.5 68.6562 279.812 68.5104 281.125 68.2188C282.458 67.9062 283.667 67.5104 284.75 67.0312L285.688 60.625H292.469V71.5C290.698 72.6667 288.49 73.6562 285.844 74.4688C283.198 75.2604 280.26 75.6562 277.031 75.6562ZM297.594 75V69.5312L301.969 68.5938V47.625L297.125 46.6875V41.1875H310.469L310.812 45.375L310.875 46.125C311.708 44.2917 312.74 42.9062 313.969 41.9688C315.198 41.0312 316.667 40.5625 318.375 40.5625C318.917 40.5625 319.51 40.6146 320.156 40.7188C320.802 40.8021 321.375 40.9167 321.875 41.0625L320.906 49.4688L316.375 49.2188C315.083 49.1562 314.031 49.375 313.219 49.875C312.427 50.375 311.719 51.0938 311.094 52.0312V68.5938L315.469 69.5312V75H297.594ZM324.75 75V69.5312L329.156 68.5938V47.625L324.281 46.6875V41.1875H338.281V68.5938L342.656 69.5312V75H324.75ZM328.844 34.0312V26.25H338.281V34.0312H328.844ZM359 75.6562C355.854 75.6562 353.427 74.7917 351.719 73.0625C350.031 71.3333 349.188 68.5938 349.188 64.8438V47.5938H344.531V41.1875H349.188V32.9062H358.281V41.1875H364.5V47.5938H358.281V64.8125C358.281 66.125 358.552 67.0625 359.094 67.625C359.656 68.1875 360.417 68.4688 361.375 68.4688C361.896 68.4688 362.438 68.4375 363 68.375C363.583 68.2917 364.083 68.2083 364.5 68.125L365.281 74.7188C364.344 74.9896 363.323 75.2083 362.219 75.375C361.135 75.5625 360.062 75.6562 359 75.6562ZM369.188 75V69.5312L373.594 68.5938V47.625L368.719 46.6875V41.1875H382.719V68.5938L387.094 69.5312V75H369.188ZM373.281 34.0312V26.25H382.719V34.0312H373.281ZM406.062 75.6562C402.812 75.6562 400 74.9271 397.625 73.4688C395.271 72.0104 393.458 70 392.188 67.4375C390.917 64.8542 390.281 61.9062 390.281 58.5938V57.6562C390.281 54.3229 390.927 51.375 392.219 48.8125C393.51 46.25 395.333 44.2396 397.688 42.7812C400.042 41.3021 402.812 40.5625 406 40.5625C409.042 40.5625 411.656 41.0417 413.844 42C416.052 42.9375 417.844 44.0312 419.219 45.2812L419.156 54.9688H412.281L411.062 48.9375C410.562 48.4375 409.927 48.0312 409.156 47.7188C408.385 47.4062 407.604 47.25 406.812 47.25C405.146 47.25 403.76 47.6667 402.656 48.5C401.573 49.3333 400.76 50.5208 400.219 52.0625C399.677 53.6042 399.406 55.4688 399.406 57.6562V58.5938C399.406 60.9062 399.708 62.8125 400.312 64.3125C400.917 65.7917 401.719 66.8854 402.719 67.5938C403.74 68.3021 404.875 68.6562 406.125 68.6562C407.729 68.6562 409.01 68.2396 409.969 67.4062C410.948 66.5521 411.615 65.3542 411.969 63.8125H419.781L419.875 64C419.521 66.3958 418.812 68.4688 417.75 70.2188C416.708 71.9688 415.229 73.3125 413.312 74.25C411.417 75.1875 409 75.6562 406.062 75.6562Z" fill="#1C4E80"/>
</svg>
