<svg width="1255" height="386" viewBox="0 0 1255 386" fill="none" xmlns="http://www.w3.org/2000/svg">
<path d="M178.469 210V192.91L193.605 189.98V87.9297L178.469 85V67.8125H193.605H235.793L274.562 166.934H275.148L312.648 67.8125H370.07V85L354.836 87.9297V189.98L370.07 192.91V210H311.184V192.91L327.102 189.98V162.734L327.59 98.5742L327.004 98.4766L284.523 208.047H262.941L219.484 99.3555L218.898 99.4531L220.559 159.805V189.98L237.355 192.91V210H178.469ZM431.496 212.051C421.405 212.051 412.583 209.837 405.031 205.41C397.479 200.918 391.62 194.766 387.453 186.953C383.352 179.141 381.301 170.221 381.301 160.195V156.289C381.301 145.807 383.254 136.53 387.16 128.457C391.066 120.319 396.568 113.939 403.664 109.316C410.826 104.629 419.257 102.318 428.957 102.383C438.527 102.383 446.568 104.271 453.078 108.047C459.589 111.823 464.536 117.259 467.922 124.355C471.307 131.452 473 140.046 473 150.137V165.664H410.891L410.695 166.25C411.086 170.872 412.225 175.007 414.113 178.652C416.066 182.233 418.801 185.065 422.316 187.148C425.832 189.167 430.096 190.176 435.109 190.176C440.318 190.176 445.168 189.525 449.66 188.223C454.217 186.855 458.645 184.87 462.941 182.266L470.656 199.844C466.294 203.359 460.793 206.289 454.152 208.633C447.577 210.911 440.025 212.051 431.496 212.051ZM411.086 146.816H446.34V144.277C446.34 139.98 445.754 136.302 444.582 133.242C443.475 130.117 441.652 127.708 439.113 126.016C436.639 124.323 433.417 123.477 429.445 123.477C425.669 123.477 422.479 124.486 419.875 126.504C417.271 128.457 415.22 131.159 413.723 134.609C412.29 138.06 411.314 141.966 410.793 146.328L411.086 146.816ZM485.109 210V192.91L498.781 189.98V124.453L483.645 121.523V104.336H525.344L526.613 119.473C530.129 114.069 534.458 109.87 539.602 106.875C544.81 103.88 550.734 102.383 557.375 102.383C567.857 102.383 576.06 105.736 581.984 112.441C587.909 119.147 590.871 129.661 590.871 143.984V189.98L604.543 192.91V210H550.051V192.91L562.258 189.98V144.082C562.258 136.986 560.858 131.973 558.059 129.043C555.259 126.048 551.092 124.551 545.559 124.551C541.457 124.551 537.876 125.43 534.816 127.188C531.822 128.88 529.315 131.322 527.297 134.512V189.98L538.82 192.91V210H485.109ZM654.445 212.051C643.312 212.051 634.556 208.535 628.176 201.504C621.861 194.408 618.703 183.405 618.703 168.496V124.453L607.082 121.523V104.336H618.703H647.219V168.691C647.219 176.243 648.521 181.68 651.125 185C653.794 188.255 657.798 189.883 663.137 189.883C667.368 189.883 671.112 189.069 674.367 187.441C677.622 185.749 680.292 183.372 682.375 180.312V124.453L669.777 121.523V104.336H682.375H710.891V189.98L723.586 192.91V210H685.891L683.938 196.621C680.617 201.569 676.451 205.378 671.438 208.047C666.424 210.716 660.76 212.051 654.445 212.051ZM801.223 212.051C787.421 212.051 775.409 209.186 765.188 203.457C754.966 197.663 747.056 189.492 741.457 178.945C735.923 168.333 733.156 155.801 733.156 141.348V136.562C733.156 122.76 735.826 110.553 741.164 99.9414C746.568 89.2643 754.25 80.8984 764.211 74.8438C774.172 68.7891 786.021 65.7617 799.758 65.7617C809.393 65.7617 818.41 67.1289 826.809 69.8633C835.272 72.5977 842.824 76.7643 849.465 82.3633V116.738H828.273L825.344 95.1562C823.195 93.5938 820.852 92.2591 818.312 91.1523C815.773 90.0456 813.007 89.1992 810.012 88.6133C807.082 88.0273 803.892 87.7344 800.441 87.7344C792.368 87.7344 785.435 89.7201 779.641 93.6914C773.846 97.6628 769.387 103.294 766.262 110.586C763.202 117.812 761.672 126.406 761.672 136.367V141.348C761.672 151.309 763.299 159.935 766.555 167.227C769.81 174.518 774.432 180.182 780.422 184.219C786.411 188.19 793.508 190.176 801.711 190.176C805.812 190.176 809.914 189.72 814.016 188.809C818.182 187.832 821.958 186.595 825.344 185.098L828.273 165.078H849.465V199.062C843.931 202.708 837.03 205.801 828.762 208.34C820.493 210.814 811.314 212.051 801.223 212.051ZM865.48 210V192.91L879.152 189.98V124.453L864.016 121.523V104.336H905.715L906.789 117.422L906.984 119.766C909.589 114.036 912.811 109.707 916.652 106.777C920.493 103.848 925.083 102.383 930.422 102.383C932.115 102.383 933.97 102.546 935.988 102.871C938.007 103.132 939.797 103.49 941.359 103.945L938.332 130.215L924.172 129.434C920.135 129.238 916.848 129.922 914.309 131.484C911.835 133.047 909.621 135.293 907.668 138.223V189.98L921.34 192.91V210H865.48ZM950.344 210V192.91L964.113 189.98V124.453L948.879 121.523V104.336H992.629V189.98L1006.3 192.91V210H950.344ZM963.137 81.9727V57.6562H992.629V81.9727H963.137ZM1057.38 212.051C1047.54 212.051 1039.96 209.349 1034.62 203.945C1029.35 198.542 1026.71 189.98 1026.71 178.262V124.355H1012.16V104.336H1026.71V78.457H1055.13V104.336H1074.56V124.355H1055.13V178.164C1055.13 182.266 1055.98 185.195 1057.67 186.953C1059.43 188.711 1061.8 189.59 1064.8 189.59C1066.42 189.59 1068.12 189.492 1069.88 189.297C1071.7 189.036 1073.26 188.776 1074.56 188.516L1077 209.121C1074.07 209.967 1070.88 210.651 1067.43 211.172C1064.05 211.758 1060.7 212.051 1057.38 212.051ZM1089.21 210V192.91L1102.98 189.98V124.453L1087.75 121.523V104.336H1131.5V189.98L1145.17 192.91V210H1089.21ZM1102 81.9727V57.6562H1131.5V81.9727H1102ZM1204.45 212.051C1194.29 212.051 1185.5 209.772 1178.08 205.215C1170.72 200.658 1165.06 194.375 1161.09 186.367C1157.11 178.294 1155.13 169.082 1155.13 158.73V155.801C1155.13 145.384 1157.15 136.172 1161.18 128.164C1165.22 120.156 1170.92 113.874 1178.27 109.316C1185.63 104.694 1194.29 102.383 1204.25 102.383C1213.76 102.383 1221.93 103.88 1228.76 106.875C1235.66 109.805 1241.26 113.223 1245.56 117.129L1245.36 147.402H1223.88L1220.07 128.555C1218.51 126.992 1216.52 125.723 1214.11 124.746C1211.7 123.77 1209.26 123.281 1206.79 123.281C1201.58 123.281 1197.25 124.583 1193.8 127.188C1190.42 129.792 1187.88 133.503 1186.18 138.32C1184.49 143.138 1183.64 148.965 1183.64 155.801V158.73C1183.64 165.957 1184.59 171.914 1186.48 176.602C1188.36 181.224 1190.87 184.642 1194 186.855C1197.19 189.069 1200.73 190.176 1204.64 190.176C1209.65 190.176 1213.66 188.874 1216.65 186.27C1219.71 183.6 1221.8 179.857 1222.9 175.039H1247.32L1247.61 175.625C1246.5 183.112 1244.29 189.59 1240.97 195.059C1237.71 200.527 1233.09 204.727 1227.1 207.656C1221.18 210.586 1213.62 212.051 1204.45 212.051Z" fill="white"/>
<mask id="path-2-inside-1_4_54" fill="white">
<path d="M338 217C338 250.425 328.088 283.099 309.518 310.891C290.948 338.683 264.554 360.344 233.673 373.136C202.793 385.927 168.813 389.274 136.03 382.753C103.247 376.232 73.134 360.136 49.499 336.501C25.8639 312.866 9.76819 282.753 3.24729 249.97C-3.27361 217.187 0.0731493 183.207 12.8644 152.326C25.6556 121.446 47.3167 95.0516 75.1086 76.4816C102.901 57.9117 135.575 48 169 48V96.5073C145.169 96.5073 121.873 103.574 102.058 116.814C82.2429 130.054 66.799 148.872 57.6792 170.889C48.5594 192.907 46.1733 217.134 50.8225 240.507C55.4717 263.88 66.9476 285.35 83.7988 302.201C100.65 319.052 122.12 330.528 145.493 335.177C168.866 339.827 193.093 337.441 215.111 328.321C237.128 319.201 255.946 303.757 269.186 283.942C282.426 264.127 289.493 240.831 289.493 217H338Z"/>
</mask>
<path d="M338 217C338 250.425 328.088 283.099 309.518 310.891C290.948 338.683 264.554 360.344 233.673 373.136C202.793 385.927 168.813 389.274 136.03 382.753C103.247 376.232 73.134 360.136 49.499 336.501C25.8639 312.866 9.76819 282.753 3.24729 249.97C-3.27361 217.187 0.0731493 183.207 12.8644 152.326C25.6556 121.446 47.3167 95.0516 75.1086 76.4816C102.901 57.9117 135.575 48 169 48V96.5073C145.169 96.5073 121.873 103.574 102.058 116.814C82.2429 130.054 66.799 148.872 57.6792 170.889C48.5594 192.907 46.1733 217.134 50.8225 240.507C55.4717 263.88 66.9476 285.35 83.7988 302.201C100.65 319.052 122.12 330.528 145.493 335.177C168.866 339.827 193.093 337.441 215.111 328.321C237.128 319.201 255.946 303.757 269.186 283.942C282.426 264.127 289.493 240.831 289.493 217H338Z" stroke="white" stroke-width="10" mask="url(#path-2-inside-1_4_54)"/>
<mask id="path-3-inside-2_4_54" fill="white">
<path d="M338 217C338 250.425 328.088 283.099 309.518 310.891C290.948 338.683 264.554 360.344 233.673 373.136C202.793 385.927 168.813 389.274 136.03 382.753C103.247 376.232 73.134 360.136 49.499 336.501C25.8639 312.866 9.76819 282.753 3.24729 249.97C-3.27361 217.187 0.0731493 183.207 12.8644 152.326C25.6556 121.446 47.3167 95.0516 75.1086 76.4816C102.901 57.9117 135.575 48 169 48V96.5073C145.169 96.5073 121.873 103.574 102.058 116.814C82.2429 130.054 66.799 148.872 57.6792 170.889C48.5594 192.907 46.1733 217.134 50.8225 240.507C55.4717 263.88 66.9476 285.35 83.7988 302.201C100.65 319.052 122.12 330.528 145.493 335.177C168.866 339.827 193.093 337.441 215.111 328.321C237.128 319.201 255.946 303.757 269.186 283.942C282.426 264.127 289.493 240.831 289.493 217H338Z"/>
</mask>
<path d="M338 217C338 250.425 328.088 283.099 309.518 310.891C290.948 338.683 264.554 360.344 233.673 373.136C202.793 385.927 168.813 389.274 136.03 382.753C103.247 376.232 73.134 360.136 49.499 336.501C25.8639 312.866 9.76819 282.753 3.24729 249.97C-3.27361 217.187 0.0731493 183.207 12.8644 152.326C25.6556 121.446 47.3167 95.0516 75.1086 76.4816C102.901 57.9117 135.575 48 169 48V96.5073C145.169 96.5073 121.873 103.574 102.058 116.814C82.2429 130.054 66.799 148.872 57.6792 170.889C48.5594 192.907 46.1733 217.134 50.8225 240.507C55.4717 263.88 66.9476 285.35 83.7988 302.201C100.65 319.052 122.12 330.528 145.493 335.177C168.866 339.827 193.093 337.441 215.111 328.321C237.128 319.201 255.946 303.757 269.186 283.942C282.426 264.127 289.493 240.831 289.493 217H338Z" stroke="white" stroke-width="10" mask="url(#path-3-inside-2_4_54)"/>
</svg>
